<?xml version="1.0" encoding="UTF-8"?>
<svg id="Laag_1" data-name="Laag 1" xmlns="http://www.w3.org/2000/svg" viewBox="0 0 212.6 255.12">
  <defs>
    <style>
      .cls-1 {
        fill: #ffdd08;
      }

      .cls-1, .cls-2, .cls-3 {
        stroke-width: 0px;
      }

      .cls-3 {
        fill: #ffdd0b;
      }
    </style>
  </defs>
  <rect class="cls-3" width="212.6" height="255.12" rx="11.34" ry="11.34"/>
  <rect class="cls-2" x="7.67" y="9.2" width="197.27" height="236.72" rx="11.34" ry="11.34"/>
  <path id="mark" class="cls-1" d="m165.37,101.64c0-5.93-3.22-11.44-8.3-14.49l-42.36-24.99c-5.34-3.22-12.03-3.13-17.37.08l-42.12,25.33c-5.17,3.05-8.22,8.64-8.22,14.57l.25,51.36c0,5.93,3.22,11.44,8.3,14.49l42.36,24.99c5.34,3.13,12.03,3.13,17.37-.08l42.1-25.33c5.08-3.05,8.22-8.64,8.22-14.57l-.25-51.36h.02Zm-59.07,34.39h42.78c-3.9,19.31-21.01,33.89-41.51,33.89-23.38,0-42.36-18.98-42.36-42.36s18.98-42.36,42.38-42.36c20.5,0,37.61,14.57,41.51,33.89h-42.78c-4.66,0-8.47,3.81-8.47,8.47s3.81,8.47,8.47,8.47h-.02Z"/>
</svg>